<svg width="675" height="480" viewBox="0 0 675 480" fill="none" xmlns="http://www.w3.org/2000/svg">
<g clip-path="url(#clip0_249_7876)">
<rect width="675" height="480" transform="matrix(-1 0 0 1 675 0)" fill="white"/>
<path d="M342.75 442.781C343.031 442.781 343.219 442.5 343.219 442.266C343.219 441.984 342.938 441.797 342.703 441.797H342.609C341.859 437.391 340.734 430.453 339.141 419.578C337.922 411.469 336.75 392.484 335.672 370.266C343.031 369.375 350.391 366.422 357.375 360.188L377.672 440.437H377.531C377.25 440.437 377.016 440.672 377.016 440.953C377.016 441.234 377.25 441.469 377.531 441.469H377.906L379.875 449.156H381.609C383.156 456.375 381.75 461.016 381.328 462.141C379.594 462.281 378 463.078 376.875 464.437C373.078 468.844 373.734 477.937 373.828 479.109H349.453C349.359 477.328 348.938 471.187 346.781 467.578C346.5 467.062 346.172 466.594 345.797 466.125C343.5 463.219 341.766 454.219 340.922 449.156H343.922C343.922 449.062 343.641 447.937 342.75 442.781Z" fill="#FFDDCE"/>
<path d="M321.703 449.063C321 454.453 319.219 459.938 317.859 460.828C316.5 461.719 311.156 462.328 305.953 462.985C301.219 463.594 296.297 464.203 293.859 465C290.344 466.172 289.453 471.703 289.266 475.594C289.219 475.641 289.219 475.735 289.219 475.781C289.219 475.828 289.219 475.875 289.266 475.922C289.219 477.281 289.219 478.406 289.266 478.969H228.562C226.078 477.844 192.328 461.906 208.547 439.969C225.375 417.141 265.359 427.172 269.625 413.625C273.891 400.031 265.688 367.313 277.875 357.75C282.281 354.281 293.109 360.656 306.516 365.578C313.219 412.313 319.172 449.063 319.172 449.063H321.703Z" fill="#FFDDCE"/>
<path d="M409.594 469.172C408.844 466.078 407.953 464.015 407.016 463.031C405.047 461.062 402.656 452.203 401.906 449.062H403.406C403.406 449.062 392.484 386.25 381.984 315.844C390.656 288.562 416.156 257.437 443.484 282.75C464.437 302.156 445.969 328.125 449.531 351.047C456.328 394.312 480.469 372 485.203 395.765C489.703 418.312 432.656 473.297 426.609 479.015H411C410.953 478.5 410.484 472.781 409.594 469.172Z" fill="#FFDDCE"/>
<path d="M284.859 43.4531V80.1562L268.219 80.625H268.172L259.547 81.4688L262.453 75.6094C265.828 68.8125 267.422 65.0625 266.625 63.2812C266.437 62.8125 266.016 62.4844 265.547 62.3438C263.719 61.8281 262.312 63.0937 261.609 63.9375C261.187 63.1406 260.391 62.0625 259.313 61.9688C258.422 61.875 257.578 62.4844 256.828 63.6563C256.219 64.6406 255.141 66.0469 253.922 67.6875C250.406 72.2812 245.625 78.6094 245.813 82.3125L231.562 77.7656L228.703 36.8438L251.062 38.7656L285.328 37.3125V42.9375C285.047 42.9844 284.859 43.1719 284.859 43.4531ZM251.625 44.0625C251.625 43.7813 251.391 43.5469 251.109 43.5469C250.828 43.5469 250.594 43.7813 250.594 44.0625L251.484 65.9063C251.484 66.1875 251.719 66.4219 252 66.4219C252.281 66.4219 252.516 66.1875 252.516 65.9063L251.625 44.0625Z" fill="#406829"/>
<path d="M345.047 466.688C345.328 467.016 345.563 467.344 345.75 467.719C344.016 468.234 338.063 469.312 331.547 463.641C328.172 460.688 322.031 460.734 319.172 460.922C320.813 458.813 322.078 453.656 322.641 449.109H339.891C340.734 454.219 342.516 463.5 345.047 466.688Z" fill="white"/>
<path d="M406.312 463.734C406.875 464.297 407.719 465.703 408.609 469.219C406.359 470.109 403.922 469.828 399.187 466.172C394.125 462.234 389.625 461.391 386.719 461.391H386.672C385.219 461.391 383.813 461.578 382.453 462C383.016 460.312 384.094 455.766 382.688 449.062H400.922C401.578 452.016 404.062 461.484 406.312 463.734Z" fill="white"/>
<path d="M401.906 449.063H379.875L377.906 441.375H392.344C392.625 441.375 392.859 441.141 392.859 440.859C392.859 440.578 392.625 440.344 392.344 440.344H377.625L357.328 360.141L331.594 258.562C331.875 258.516 332.016 258.234 331.969 257.953L326.438 236.672C326.391 236.531 326.297 236.391 326.109 236.344C326.063 236.297 318.984 233.813 316.687 229.313C316.547 229.078 316.266 228.984 316.031 229.078C315.797 229.219 315.703 229.5 315.797 229.734C318 234.188 324.188 236.672 325.5 237.188L331.031 258.187C331.078 258.422 331.312 258.562 331.547 258.562C331.734 264.516 333.422 324.281 335.672 370.219C336.75 392.438 337.969 411.422 339.141 419.531C340.734 430.359 341.859 437.344 342.609 441.75H329.437C329.156 441.75 328.922 441.984 328.922 442.266C328.922 442.547 329.156 442.781 329.437 442.781H342.656H342.75C343.641 447.938 343.922 449.063 343.922 449.063H319.172C319.172 449.063 313.219 412.313 306.562 365.578C299.203 313.641 291.047 249.422 289.359 209.719C296.391 210.656 303.516 211.266 310.594 211.453C310.734 214.547 311.109 219.047 311.953 222C312 222.188 312.188 222.328 312.422 222.328C312.469 222.328 312.516 222.328 312.562 222.328C312.844 222.234 312.984 221.953 312.891 221.719C312.047 218.906 311.719 214.547 311.578 211.5C320.953 211.828 330.328 211.5 339.609 210.516C348.656 221.156 355.172 222.469 357.797 222.469C358.219 222.469 358.687 222.422 359.109 222.328C359.391 222.234 359.531 222 359.437 221.719C359.344 221.437 359.109 221.297 358.828 221.391C358.266 221.484 357.703 221.484 357.188 221.437C357.234 219.844 357.375 213.984 358.453 209.25L359.25 209.859C359.344 209.906 359.437 209.953 359.578 209.953C359.859 209.953 360.094 209.719 360.047 209.437C360.047 209.297 359.953 209.156 359.859 209.062L362.063 205.969C363.609 205.5 365.156 204.984 366.656 204.422C369.047 216.422 374.344 265.078 381.891 315.75C392.391 386.297 403.359 449.063 403.359 449.063H401.906ZM326.297 261.891C326.297 261.609 326.062 261.422 325.781 261.422C325.5 261.422 325.312 261.656 325.312 261.937C325.359 262.828 328.688 351.328 330.563 369.188C330.609 369.422 330.797 369.609 331.078 369.609H331.125C331.406 369.563 331.594 369.328 331.547 369.047C329.625 351.234 326.297 262.781 326.297 261.891ZM355.453 231.937C355.172 231.891 354.938 232.031 354.844 232.313C354.797 232.406 351.844 243.563 342.234 247.688C342 247.781 341.859 248.062 341.953 248.344C342.047 248.531 342.188 248.625 342.422 248.625C342.469 248.625 342.563 248.625 342.609 248.578C352.688 244.266 355.781 232.688 355.828 232.547C355.875 232.266 355.734 231.984 355.453 231.937ZM361.5 235.078C361.453 234.797 361.219 234.609 360.938 234.656C360.656 234.703 360.469 234.937 360.516 235.219L380.484 363C380.531 363.234 380.719 363.422 381 363.422H381.094C381.375 363.375 381.563 363.141 381.516 362.859L361.5 235.078Z" fill="#406829"/>
<path d="M339.609 201.984L343.172 197.484C342.984 197.344 342.938 197.062 343.031 196.875L351.703 181.406C359.344 162.703 367.078 126.281 369.094 116.531V106.781C369.094 106.5 369.328 106.266 369.609 106.266C369.891 106.266 370.125 106.5 370.125 106.781V150.656C370.125 150.75 370.125 150.844 370.078 150.891L344.156 196.922L359.953 209.156C360.188 209.344 360.188 209.625 360.047 209.859C359.906 210.094 359.578 210.094 359.344 209.953L358.547 209.344C357.469 214.078 357.328 219.891 357.281 221.531C357.844 221.625 358.406 221.578 358.922 221.484C359.203 221.391 359.438 221.578 359.531 221.813C359.625 222.094 359.438 222.328 359.203 222.422C358.781 222.516 358.359 222.562 357.891 222.562C355.266 222.562 348.797 221.25 339.703 210.609C330.375 211.594 321 211.922 311.672 211.594C311.813 214.641 312.188 219 312.984 221.813C313.078 222.094 312.938 222.328 312.656 222.422C312.609 222.422 312.563 222.422 312.516 222.422C312.281 222.422 312.094 222.281 312.047 222.094C311.156 219.141 310.828 214.641 310.688 211.547C303.563 211.312 296.484 210.703 289.453 209.766C289.406 208.312 289.359 206.906 289.313 205.5C321.141 206.062 339.609 201.984 339.609 201.984ZM344.063 198.234L337.828 206.719C339.469 208.688 349.125 220.031 356.203 221.391C356.25 219.516 356.438 213.516 357.563 208.688L344.063 198.234Z" fill="#1C1503"/>
<path d="M365.953 200.812C366.141 201.797 366.422 203.063 366.703 204.563C365.203 205.125 363.656 205.641 362.109 206.109C363.141 204.656 364.453 202.875 365.953 200.812Z" fill="#1C1503"/>
<path d="M357.609 208.688C356.438 213.516 356.25 219.516 356.25 221.391C349.125 220.031 339.469 208.688 337.875 206.719L344.062 198.234L357.609 208.688Z" fill="white"/>
<path d="M286.312 164.297C286.312 164.391 286.312 164.484 286.359 164.578C286.219 164.625 286.031 164.672 285.844 164.766L286.359 164.156L286.312 164.297Z" fill="#FFDDCE"/>
<path d="M359.86 209.203L344.063 196.969L369.985 150.937C370.031 150.844 370.031 150.797 370.031 150.703V106.828C370.031 106.547 369.797 106.312 369.516 106.312C369.235 106.312 369 106.547 369 106.828V116.578C367.031 126.328 359.297 162.75 351.61 181.453L342.891 196.875C342.75 197.062 342.844 197.344 343.031 197.484L339.469 201.984C339.469 201.984 321.047 206.062 289.125 205.547C286.641 205.5 284.063 205.453 281.438 205.312L286.594 164.859H286.688C286.922 164.859 287.156 164.672 287.203 164.437L293.578 123.937V123.984C293.578 123.937 293.625 123.891 293.625 123.844L297.141 101.391C297.188 101.109 297 100.875 296.719 100.828C296.438 100.781 296.203 100.969 296.156 101.25L292.594 123.703V123.75L291.094 133.312C288.516 144.375 283.688 161.484 277.828 164.344C272.625 162.188 266.344 155.531 262.406 137.203L254.813 101.531L255.61 101.391C255.656 101.484 255.703 101.531 255.75 101.578C255.844 101.719 255.985 101.812 256.172 101.812H256.266L274.172 99.0469C274.36 99 274.547 98.8594 274.594 98.625C274.594 98.5781 274.594 98.5312 274.641 98.4844L276.281 98.25L281.438 127.734C281.156 127.781 281.016 128.062 281.063 128.297L283.453 140.203C283.5 140.438 283.688 140.625 283.969 140.578C284.016 140.578 284.016 140.578 284.063 140.578C284.344 140.531 284.485 140.25 284.438 140.016L282.047 128.109C282 127.922 281.86 127.734 281.625 127.734C282.422 122.906 289.219 83.4844 297.235 75.8906C304.781 68.7656 318.61 66.4219 321.797 66C321.61 67.2656 322.078 68.5781 323.016 69.4687L323.063 69.5156C324.188 70.5469 326.063 71.0625 328.828 71.1563C329.25 71.1563 329.719 71.2031 330.094 71.2031C343.594 71.2031 346.828 63.6094 346.969 63.2812C346.969 63.2344 347.016 63.1875 347.016 63.0938V63.0469C349.5 63.3281 351.938 63.7969 354.375 64.5C375.422 70.4063 382.641 67.6406 389.578 97.8281C396.235 126.844 398.625 147.328 396.703 154.453C395.297 159.656 376.219 186.656 365.953 200.859C364.453 202.922 363.141 204.75 362.11 206.156L359.86 209.203ZM307.36 161.297C305.578 158.156 304.594 154.641 304.406 151.031C304.406 150.75 304.172 150.516 303.891 150.516C303.61 150.516 303.375 150.75 303.375 151.031C303.516 154.781 304.594 158.484 306.422 161.766C309.235 166.641 315.188 172.453 327.844 172.453C328.125 172.453 328.36 172.219 328.36 171.937C328.36 171.656 328.125 171.422 327.844 171.422C318.141 171.469 311.25 168.047 307.36 161.297ZM346.641 69.8906C346.453 69.6563 346.172 69.6562 345.938 69.7969C345.844 69.8906 336.844 76.7813 327.938 75.8438C319.266 74.9531 318.61 70.3125 318.563 70.125C318.516 69.8438 318.281 69.6562 318 69.7031C317.719 69.75 317.531 69.9844 317.578 70.2656C317.578 70.5 318.281 75.8906 327.797 76.875C328.406 76.9219 329.016 76.9687 329.625 76.9687C338.297 76.9687 346.172 70.875 346.547 70.5938C346.735 70.4063 346.781 70.125 346.641 69.8906ZM374.25 151.641H384.375C384.656 151.641 384.891 151.406 384.891 151.125C384.891 150.844 384.656 150.609 384.375 150.609H374.25C373.969 150.609 373.735 150.844 373.735 151.125C373.781 151.406 373.969 151.641 374.25 151.641Z" fill="#E1D49D"/>
<path d="M345.984 62.9531C345.609 63.75 341.906 70.5938 328.828 70.1719C326.625 70.0781 325.031 69.7031 324.047 69.0469C338.672 66.8438 343.688 55.5938 345.141 50.6719C345.703 49.5469 346.172 48.5156 346.547 47.625L345.984 62.9531Z" fill="white"/>
<path d="M346.969 63.2344C346.828 63.5625 343.594 71.1563 330.094 71.1563C329.672 71.1563 329.25 71.1563 328.828 71.1094C326.11 71.0157 324.235 70.5 323.063 69.4688L323.016 69.4219C322.078 68.5313 321.61 67.2188 321.797 65.9532C321.891 64.9219 322.172 63.8438 322.547 62.8594C313.688 60.4219 307.266 51.0938 303.282 42.1407C299.25 37.125 296.297 31.125 296.531 22.3594C296.531 22.3594 288.75 14.625 295.032 5.57817C298.453 0.703167 308.297 1.87504 324.094 0.234416C338.438 -1.26558 339.422 5.15629 339.422 5.15629C339.422 5.15629 347.766 3.18754 348.282 16.5C348.797 30.4688 348.375 34.9219 347.438 42.1407C347.532 43.0782 347.578 43.8282 347.625 44.3438C347.625 44.3438 347.625 44.3438 347.625 44.3907L346.922 63V63.0469C346.969 63.1407 346.969 63.1875 346.969 63.2344ZM305.719 45.0469C309.422 52.1719 315.657 60.9375 324.563 62.2969C340.453 64.6875 346.219 45.7032 346.641 44.2969L346.594 44.0157C344.11 42.375 341.86 40.4063 339.844 38.1563C339.844 38.1563 344.625 32.2969 339.656 27.9375C334.688 23.5313 334.219 31.4532 334.219 31.4532C334.219 31.4532 330.516 15.4688 322.078 17.9532C313.641 20.4375 317.157 25.8282 301.36 24.8438C301.36 24.8438 300.563 31.7813 303.938 41.4375C304.547 42.6563 305.11 43.875 305.719 45.0469ZM345.141 50.625C343.641 55.5469 338.672 66.7969 324.047 69C325.031 69.7032 326.625 70.0782 328.828 70.125C341.953 70.5469 345.61 63.7032 345.985 62.9063L346.547 47.5313C346.172 48.4688 345.703 49.5 345.141 50.625Z" fill="#1C1503"/>
<path d="M301.406 24.8907C317.203 25.8751 313.688 20.4376 322.125 18.0001C330.563 15.5157 334.266 31.5001 334.266 31.5001C334.266 31.5001 334.781 23.5782 339.703 27.9844C344.672 32.3907 339.891 38.2032 339.891 38.2032C341.906 40.4063 344.156 42.3751 346.641 44.0626L346.688 44.3438C346.266 45.7501 340.5 64.7813 324.609 62.3438C315.703 60.9844 309.422 52.2188 305.766 45.0938C305.156 43.9219 304.594 42.7032 304.031 41.4844C300.609 31.8282 301.406 24.8907 301.406 24.8907ZM323.813 30.0001C323.672 29.7657 323.391 29.6719 323.156 29.8126C320.625 31.1719 317.578 29.8126 317.531 29.8126C317.297 29.6719 317.016 29.7657 316.875 30.0001C316.734 30.2344 316.828 30.5157 317.063 30.6563C317.109 30.6563 317.109 30.7032 317.156 30.7032C318.234 31.1719 319.406 31.4063 320.578 31.4063C321.656 31.4063 322.688 31.1719 323.625 30.7032C323.859 30.5157 323.953 30.2344 323.813 30.0001ZM319.922 36.1876C320.156 37.2657 320.813 38.0157 321.328 37.8751C321.844 37.7344 322.078 36.7969 321.844 35.7188C321.563 34.6407 320.953 33.8907 320.438 34.0313C319.922 34.1719 319.641 35.1094 319.922 36.1876ZM339.984 33.5157C339.984 33.4219 340.219 31.2188 339.047 29.9063C338.484 29.2969 337.688 28.9688 336.844 29.0157C336.563 29.0157 336.328 29.2501 336.328 29.5313C336.328 29.8126 336.563 30.0469 336.844 30.0469C337.406 30.0001 337.922 30.2344 338.344 30.6563C339.094 31.4532 339.094 33.0001 339.047 33.5157C339 33.7969 339.234 34.0313 339.469 34.0313H339.516C339.75 33.9376 339.938 33.7501 339.984 33.5157ZM320.25 48.6094C320.531 48.6563 320.859 48.6563 321.141 48.6563C323.625 48.6094 326.016 47.5313 327.703 45.7501C327.891 45.5626 327.844 45.2344 327.656 45.0469C327.469 44.8594 327.141 44.9063 326.953 45.0938C326.953 45.1407 324.328 48.0469 320.344 47.6251C320.063 47.5782 319.828 47.8126 319.781 48.0469C319.781 48.3282 319.969 48.5626 320.25 48.6094ZM313.594 44.8126C313.875 46.1719 315.656 46.4063 316.875 46.4063C317.25 46.4063 317.578 46.3594 317.953 46.3594C318.234 46.3126 318.422 46.0782 318.375 45.7969C318.328 45.5157 318.094 45.3282 317.813 45.3751C316.828 45.5157 314.672 45.4688 314.484 44.6251C314.156 43.0782 312.75 32.8126 312.703 32.7188C312.656 32.4376 312.422 32.2501 312.141 32.2969C311.859 32.3438 311.672 32.5782 311.719 32.8594C311.859 33.2344 313.219 43.2188 313.594 44.8126ZM308.016 39.6563C308.25 40.7344 308.906 41.4844 309.422 41.3438C309.938 41.2032 310.172 40.2657 309.938 39.1876C309.656 38.1094 309.047 37.3594 308.531 37.5001C308.016 37.6407 307.781 38.5782 308.016 39.6563ZM304.359 35.4376C304.406 35.4376 304.453 35.4376 304.5 35.4376C304.734 35.4376 304.922 35.2969 305.016 35.0626C305.391 33.4688 307.406 33.4688 307.5 33.4688C307.781 33.4688 308.016 33.2344 308.016 32.9532C308.016 32.6719 307.781 32.4376 307.5 32.4376C306.516 32.4376 304.5 32.9532 304.031 34.7813C303.984 35.0626 304.125 35.3438 304.359 35.4376C304.359 35.4376 304.406 35.4376 304.359 35.4376Z" fill="white"/>
<path d="M273.75 98.1092L256.5 100.781C255.234 98.8592 247.265 86.6717 246.844 82.4529C246.515 79.1248 251.484 72.6092 254.719 68.2967C255.984 66.656 257.062 65.2029 257.672 64.2185C258.047 63.6092 258.609 62.906 259.219 62.9529C259.969 62.9998 260.719 64.2185 261 64.8279L252.562 78.8904C252.422 79.1248 252.515 79.406 252.75 79.5467C252.984 79.6873 253.265 79.5935 253.406 79.3592L261.937 65.156C261.937 65.1092 263.344 62.8123 265.265 63.3279C265.453 63.3748 265.64 63.5154 265.687 63.7029C266.437 65.3904 263.484 71.2498 261.515 75.1873L258.187 81.8435C258.094 81.9842 258.14 82.1717 258.234 82.3592C258.328 82.4998 258.515 82.5935 258.703 82.5935L259.125 82.5467L258.047 83.6717C257.859 83.8592 257.859 84.1873 258.047 84.3748C258.14 84.4685 258.281 84.5154 258.375 84.5154C258.515 84.5154 258.656 84.4685 258.75 84.3748L260.625 82.4529L267.187 81.7967L264 86.6248C263.859 86.8592 263.906 87.1404 264.14 87.3279C264.234 87.3748 264.328 87.4217 264.422 87.4217C264.609 87.4217 264.75 87.3279 264.844 87.1873L268.312 81.9842C269.531 83.2498 269.906 85.1248 269.203 86.7185C269.156 86.8592 269.156 86.9998 269.203 87.0935C269.25 87.2342 269.39 87.3279 269.484 87.3748C269.719 87.3748 275.109 89.3435 273.75 98.1092Z" fill="white"/>
<path d="M274.266 99.0469L256.359 101.812H256.266C256.125 101.812 255.937 101.719 255.844 101.578C255.844 101.531 255.797 101.484 255.703 101.391C254.531 99.6563 246.281 87.1406 245.859 82.5469C245.859 82.5 245.859 82.4063 245.859 82.3125C245.672 78.5625 250.453 72.2812 253.969 67.6875C255.187 66.0469 256.266 64.6406 256.875 63.6563C257.625 62.4375 258.469 61.875 259.359 61.9688C260.437 62.0625 261.234 63.1406 261.656 63.9375C262.359 63.0937 263.766 61.8281 265.594 62.3438C266.062 62.4844 266.484 62.8125 266.672 63.2812C267.469 65.0625 265.875 68.8125 262.5 75.6094L259.594 81.4688L268.219 80.625H268.266L284.906 80.1562V43.4531C284.906 43.1719 285.141 42.9375 285.422 42.9375C285.703 42.9375 285.938 43.1719 285.938 43.4531V80.625C285.938 80.9062 285.703 81.1406 285.422 81.1406L269.344 81.5625C270.516 82.9688 270.891 84.8438 270.328 86.5313C271.359 87.0469 272.25 87.8438 272.953 88.7344C274.219 90.375 275.531 93.375 274.687 98.4375C274.687 98.4844 274.688 98.5313 274.641 98.5781C274.641 98.8594 274.453 99.0469 274.266 99.0469ZM269.484 87.2812C269.344 87.2344 269.25 87.1406 269.203 87C269.156 86.8594 269.156 86.7188 269.203 86.625C269.859 84.9844 269.531 83.1562 268.313 81.8906L264.844 87.0938C264.75 87.2344 264.609 87.3281 264.422 87.3281C264.328 87.3281 264.234 87.2813 264.141 87.2344C263.906 87.0938 263.859 86.7656 264 86.5313L267.187 81.7031L260.625 82.3594L258.797 84.2813C258.703 84.375 258.562 84.4219 258.422 84.4219C258.141 84.4219 257.906 84.1875 257.906 83.9531C257.906 83.8125 257.953 83.7187 258.047 83.625L259.125 82.5L258.703 82.5469C258.516 82.5469 258.328 82.5 258.234 82.3125C258.141 82.1719 258.141 81.9844 258.187 81.7969L261.516 75.1406C263.484 71.25 266.437 65.3438 265.687 63.6563C265.594 63.4688 265.453 63.3281 265.266 63.2812C263.344 62.7656 261.937 65.1094 261.937 65.1094L253.359 79.4062C253.219 79.6406 252.937 79.7344 252.703 79.5938C252.469 79.4531 252.375 79.1719 252.516 78.9375L260.953 64.875C260.672 64.2187 259.922 63.0469 259.172 63C258.563 62.9531 258 63.6563 257.625 64.2656C256.969 65.2969 255.891 66.7031 254.672 68.3438C251.391 72.6563 246.422 79.1719 246.797 82.5C247.219 86.7188 255.187 98.9063 256.453 100.828L273.703 98.1562C275.109 89.3438 269.719 87.375 269.484 87.2812Z" fill="#1C1503"/>
<path d="M331.5 258.609C331.266 258.609 331.078 258.469 330.984 258.234L325.5 237.234C324.141 236.719 318 234.234 315.797 229.781C315.656 229.547 315.797 229.219 316.031 229.125C316.266 228.984 316.594 229.125 316.687 229.359C318.937 233.859 326.016 236.344 326.109 236.391C326.25 236.437 326.391 236.578 326.437 236.719L331.969 258C332.016 258.281 331.875 258.516 331.594 258.609H331.5Z" fill="#1C1503"/>
<path d="M381.469 362.859C381.516 363.14 381.328 363.375 381.047 363.422H380.953C380.719 363.422 380.485 363.234 380.438 363L360.469 235.219C360.422 234.937 360.61 234.703 360.891 234.656C361.172 234.609 361.406 234.797 361.453 235.078L381.469 362.859Z" fill="#1C1503"/>
<path d="M331.078 369.609H331.031C330.797 369.609 330.563 369.422 330.516 369.187C328.641 351.281 325.313 262.828 325.266 261.937C325.266 261.656 325.453 261.422 325.735 261.422C326.016 261.422 326.25 261.609 326.25 261.891C326.297 262.781 329.625 351.234 331.5 369.094C331.547 369.375 331.36 369.609 331.078 369.609Z" fill="#1C1503"/>
<path d="M282.047 128.109L284.438 140.016C284.484 140.297 284.297 140.531 284.063 140.578C284.016 140.578 284.016 140.578 283.969 140.578C283.734 140.578 283.5 140.438 283.453 140.203L281.063 128.297C281.016 128.016 281.203 127.781 281.438 127.734C281.484 127.734 281.531 127.734 281.578 127.734C281.813 127.781 282 127.922 282.047 128.109Z" fill="#1C1503"/>
<path d="M291.188 133.359L292.688 123.797V123.75L296.25 101.297C296.297 101.015 296.531 100.828 296.813 100.875C297.094 100.922 297.281 101.156 297.235 101.437L293.719 123.89C293.719 123.937 293.719 123.984 293.672 124.031V123.984L287.344 164.484C287.297 164.719 287.11 164.906 286.828 164.906H286.735C286.453 164.859 286.313 164.625 286.313 164.344L286.36 164.203L285.844 164.812C283.266 165.609 280.453 165.515 277.969 164.437C283.735 161.531 288.61 144.375 291.188 133.359Z" fill="#1C1503"/>
<path d="M327.891 171.469C328.172 171.469 328.406 171.703 328.406 171.984C328.406 172.266 328.172 172.5 327.891 172.5C315.281 172.5 309.281 166.688 306.469 161.812C304.594 158.531 303.563 154.875 303.422 151.078C303.422 150.797 303.656 150.562 303.938 150.562C304.219 150.562 304.453 150.797 304.453 151.078C304.641 154.687 305.625 158.203 307.406 161.344C311.25 168.047 318.141 171.469 327.891 171.469C327.891 171.516 327.891 171.469 327.891 171.469Z" fill="#1C1503"/>
<path d="M252.047 66.375C251.766 66.375 251.531 66.1406 251.531 65.8594L250.641 44.0156C250.641 43.7344 250.875 43.5 251.156 43.5C251.438 43.5 251.672 43.7344 251.672 44.0156L252.562 65.8594C252.562 66.1406 252.328 66.375 252.047 66.375Z" fill="#1C1503"/>
<path d="M155.437 479.016H289.266C289.219 478.406 289.219 477.281 289.266 475.969C289.312 476.156 289.5 476.297 289.734 476.344H307.266C307.547 476.344 307.781 476.109 307.781 475.828C307.781 475.547 307.547 475.312 307.266 475.312H289.781C289.594 475.312 289.406 475.406 289.312 475.594C289.5 471.703 290.391 466.172 293.906 465C296.344 464.203 301.266 463.594 306 462.984C311.203 462.328 316.547 461.672 317.906 460.828C319.219 459.984 321.047 454.453 321.75 449.062H322.688C322.078 453.656 320.859 458.766 319.219 460.875C322.125 460.641 328.219 460.641 331.594 463.594C338.109 469.266 344.016 468.141 345.797 467.672C345.562 467.297 345.328 466.969 345.094 466.641C342.609 463.5 340.781 454.172 339.984 449.062H340.969C341.812 454.125 343.547 463.125 345.844 466.031C346.219 466.5 346.547 466.969 346.828 467.484C349.031 471.094 349.406 477.281 349.5 479.016H373.875C373.781 477.844 373.125 468.703 376.922 464.344C378.047 463.031 379.641 462.188 381.375 462.047C381.797 460.922 383.25 456.281 381.656 449.062H382.688C384.094 455.766 383.016 460.266 382.453 462C383.812 461.578 385.266 461.344 386.672 461.391H386.719C389.625 461.391 394.125 462.234 399.187 466.172C403.922 469.828 406.359 470.109 408.609 469.219C407.719 465.703 406.875 464.297 406.312 463.734C404.062 461.484 401.578 452.016 400.875 449.062H401.859C402.656 452.156 405 461.062 406.969 463.031C407.906 463.969 408.797 466.031 409.547 469.172C410.438 472.828 410.906 478.547 410.906 479.016H519.562C519.844 479.016 520.078 479.25 520.078 479.531C520.078 479.812 519.844 480.047 519.562 480.047H155.484C155.203 480.047 154.969 479.812 154.969 479.531C154.969 479.25 155.203 479.016 155.437 479.016ZM348.516 475.359H334.547C334.266 475.359 334.031 475.594 334.031 475.875C334.031 476.156 334.266 476.391 334.547 476.391H348.516C348.797 476.391 349.031 476.156 349.031 475.875C348.984 475.594 348.75 475.359 348.516 475.359ZM373.781 475.828C373.781 476.109 374.016 476.344 374.297 476.344H389.062C389.344 476.344 389.578 476.109 389.578 475.828C389.578 475.547 389.344 475.312 389.062 475.312H374.297C374.016 475.359 373.781 475.594 373.781 475.828ZM409.969 475.359H406.312C406.031 475.359 405.797 475.594 405.797 475.875C405.797 476.156 406.031 476.391 406.312 476.391H409.969C410.25 476.391 410.484 476.156 410.484 475.875C410.484 475.594 410.25 475.359 409.969 475.359Z" fill="#1C1503"/>
<path d="M374.25 150.656H384.375C384.656 150.656 384.891 150.891 384.891 151.172C384.891 151.453 384.656 151.688 384.375 151.688H374.25C373.969 151.688 373.734 151.453 373.734 151.172C373.734 150.891 373.969 150.656 374.25 150.656Z" fill="#1C1503"/>
<path d="M329.625 76.9687C329.016 76.9687 328.406 76.9218 327.797 76.875C318.281 75.8906 317.578 70.5 317.578 70.2656C317.531 69.9843 317.766 69.75 318 69.7031C318.281 69.6562 318.516 69.8906 318.563 70.125C318.609 70.3125 319.266 74.9531 327.938 75.8437C336.844 76.7812 345.844 69.8437 345.938 69.7968C346.172 69.6093 346.453 69.6562 346.641 69.8906C346.828 70.125 346.781 70.4062 346.547 70.5937C346.219 70.875 338.297 76.9687 329.625 76.9687Z" fill="#1C1503"/>
<path d="M321.844 35.7186C322.078 36.7967 321.891 37.7342 321.328 37.8749C320.812 38.0155 320.156 37.2186 319.922 36.1874C319.687 35.1092 319.875 34.1717 320.437 34.0311C321 33.8905 321.562 34.6405 321.844 35.7186Z" fill="#1C1503"/>
<path d="M308.531 37.4531C309.047 37.3125 309.703 38.1094 309.937 39.1406C310.172 40.1719 309.984 41.1563 309.422 41.2969C308.906 41.4375 308.25 40.6406 308.016 39.6094C307.781 38.5781 308.016 37.5938 308.531 37.4531Z" fill="#1C1503"/>
<path d="M323.625 30.6564C322.687 31.1252 321.656 31.3595 320.578 31.3595C319.406 31.3595 318.234 31.1252 317.156 30.6564C316.922 30.5627 316.781 30.2814 316.828 30.047C316.922 29.8127 317.203 29.672 317.437 29.7189C317.484 29.7189 317.484 29.7189 317.531 29.7658C317.578 29.7658 320.625 31.1252 323.156 29.7658C323.39 29.6252 323.672 29.7189 323.812 29.9533C323.953 30.1877 323.859 30.5158 323.625 30.6564Z" fill="#1C1503"/>
<path d="M307.5 32.4844C307.781 32.4844 308.016 32.7187 308.016 33C308.016 33.2812 307.781 33.5156 307.5 33.5156C307.406 33.5156 305.391 33.5625 305.016 35.1094C304.969 35.3437 304.734 35.4844 304.5 35.4844C304.453 35.4844 304.406 35.4844 304.359 35.4844C304.078 35.4375 303.938 35.1562 303.984 34.875C304.5 32.9531 306.516 32.4844 307.5 32.4844Z" fill="#1C1503"/>
<path d="M339.469 33.9375H339.422C339.14 33.8906 338.953 33.6563 339 33.4219C339.047 32.9063 339.047 31.4063 338.297 30.5625C337.922 30.1406 337.359 29.9531 336.797 29.9531C336.515 29.9531 336.281 29.7188 336.281 29.4375C336.281 29.1563 336.515 28.9219 336.797 28.9219C337.64 28.875 338.437 29.2031 339 29.8125C340.172 31.125 339.984 33.3281 339.937 33.4219C339.937 33.75 339.703 33.9375 339.469 33.9375Z" fill="#1C1503"/>
<path d="M312.188 32.2967C312.469 32.2499 312.703 32.4374 312.75 32.7186C312.75 32.8124 314.203 43.078 314.531 44.6249C314.719 45.5155 316.828 45.5155 317.86 45.3749C318.141 45.328 318.375 45.5155 318.422 45.7967C318.469 46.078 318.281 46.3124 318 46.3592C317.625 46.4061 317.25 46.4061 316.922 46.4061C315.703 46.4061 313.922 46.1717 313.641 44.8124C313.313 43.2186 311.906 33.2811 311.86 32.8592C311.719 32.578 311.906 32.2967 312.188 32.2967Z" fill="#1C1503"/>
<path d="M320.344 47.5783C324.375 48.0002 326.953 45.0471 326.953 45.0471C327.14 44.8596 327.422 44.8127 327.656 45.0002C327.844 45.1877 327.89 45.469 327.703 45.7033C326.015 47.5315 323.625 48.6096 321.14 48.6096C320.859 48.6096 320.531 48.6096 320.25 48.5627C319.969 48.5158 319.781 48.2815 319.828 48.0471C319.828 47.7658 320.062 47.5783 320.344 47.5783Z" fill="#1C1503"/>
<path d="M342.656 248.578C342.609 248.625 342.516 248.625 342.469 248.625C342.187 248.625 341.953 248.391 342 248.109C342 247.922 342.141 247.734 342.281 247.641C351.937 243.516 354.891 232.359 354.891 232.266C354.937 231.984 355.219 231.844 355.5 231.891C355.781 231.938 355.922 232.219 355.875 232.5C355.781 232.641 352.734 244.266 342.656 248.578Z" fill="#1C1503"/>
<path d="M343.172 442.312C343.172 442.547 342.984 442.781 342.75 442.828H342.656H329.391C329.109 442.828 328.875 442.594 328.875 442.312C328.875 442.031 329.109 441.797 329.391 441.797H342.656C342.938 441.844 343.172 442.031 343.172 442.312Z" fill="#1C1503"/>
<path d="M377.016 440.906C377.016 440.625 377.25 440.391 377.531 440.391H392.344C392.625 440.391 392.859 440.625 392.859 440.906C392.859 441.187 392.625 441.422 392.344 441.422H377.531C377.25 441.375 377.016 441.141 377.016 440.906Z" fill="#1C1503"/>
<path d="M289.313 475.641C289.406 475.453 289.594 475.359 289.781 475.359H307.266C307.547 475.359 307.781 475.594 307.781 475.875C307.781 476.156 307.547 476.391 307.266 476.391H289.781C289.547 476.391 289.359 476.25 289.313 476.016C289.313 475.969 289.266 475.922 289.266 475.875C289.266 475.781 289.266 475.688 289.313 475.641Z" fill="white"/>
<path d="M348.516 476.344H334.547C334.266 476.344 334.031 476.109 334.031 475.828C334.031 475.547 334.266 475.312 334.547 475.312H348.516C348.797 475.312 349.031 475.547 349.031 475.828C348.984 476.109 348.75 476.344 348.516 476.344Z" fill="white"/>
<path d="M374.297 475.359H389.063C389.344 475.359 389.578 475.594 389.578 475.875C389.578 476.156 389.344 476.391 389.063 476.391H374.297C374.016 476.391 373.781 476.156 373.781 475.875C373.781 475.594 374.016 475.359 374.297 475.359Z" fill="white"/>
<path d="M409.969 476.344H406.312C406.031 476.344 405.797 476.109 405.797 475.828C405.797 475.547 406.031 475.312 406.312 475.312H409.969C410.25 475.312 410.484 475.547 410.484 475.828C410.484 476.109 410.25 476.344 409.969 476.344Z" fill="white"/>
</g>
<defs>
<clipPath id="clip0_249_7876">
<rect width="675" height="480" fill="white" transform="matrix(-1 0 0 1 675 0)"/>
</clipPath>
</defs>
</svg>
