<svg width="441" height="314" viewBox="0 0 441 314" fill="none" xmlns="http://www.w3.org/2000/svg">
<g clip-path="url(#clip0_189_8950)">
<path d="M157.722 204.682C157.845 204.866 157.814 205.11 157.661 205.233C157.6 205.294 157.508 205.324 157.416 205.324C157.294 205.324 157.172 205.263 157.111 205.171C156.101 203.887 154.969 202.663 153.715 201.593C153.837 201.348 153.929 201.103 154.052 200.828C155.397 201.99 156.621 203.275 157.722 204.682Z" fill="#406829"/>
<path d="M126.521 194.345C126.306 194.375 126.092 194.222 126.062 194.008C126.031 193.794 126.184 193.58 126.398 193.549C126.551 193.519 139.491 191.317 150.473 198.168C150.381 198.413 150.259 198.657 150.136 198.902C139.399 192.173 126.674 194.314 126.521 194.345Z" fill="#406829"/>
<path d="M137.135 256.525C137.349 256.495 137.533 256.678 137.564 256.893C137.594 257.107 137.411 257.29 137.196 257.321C137.166 257.321 136.432 257.382 135.178 257.382C129.855 257.382 115.141 256.189 106.851 243.679C106.759 243.496 106.821 243.251 107.004 243.129C107.157 243.037 107.371 243.068 107.493 243.221C117.496 258.238 136.921 256.556 137.135 256.525Z" fill="#406829"/>
<path d="M227.253 172.2C224.867 165.257 223.552 160.179 224.164 158.558C224.5 157.671 225.234 156.111 226.213 154.093C227.223 155.53 233.8 165.685 227.253 172.2Z" fill="#406829"/>
<path d="M234.779 186.423L236.736 196.669C235.39 193.396 234.075 190.154 232.851 187.004L234.779 186.423Z" fill="#406829"/>
<path d="M232.026 260.197C231.934 259.432 231.964 257.138 234.381 254.11C234.962 253.376 236.247 252.764 238.266 252.244C238.847 252.397 241.998 254.263 242.181 256.496C242.212 256.679 242.365 256.863 242.549 256.863L248.238 257.138L248.942 260.778L232.026 260.197Z" fill="white"/>
<path d="M269.254 261.511C268.519 260.379 267.847 259.248 267.174 258.055L274.301 258.391C274.729 259.89 275.005 261.083 275.127 261.694L269.254 261.511Z" fill="white"/>
<path d="M252.705 257.352L263.013 257.872C263.625 259.064 264.268 260.227 264.971 261.358L253.378 260.961V260.869L252.705 257.352Z" fill="white"/>
<path d="M137.686 117.42C135.759 117.695 135.789 118.429 135.82 118.888C135.942 121.029 138.573 124.608 143.131 127.819C142.244 128.951 141.448 130.144 140.806 131.428C135.208 127.544 131.721 122.834 131.476 119.163C131.231 115.31 134.199 113.505 137.043 113.107C143.253 112.22 154.174 111.639 162.8 111.303L159.405 115.799C151.635 116.135 142.856 116.686 137.686 117.42Z" fill="#FFDDCE"/>
<path d="M290.239 223.31L316.516 223.371C315.934 225.603 309.663 227.5 308.99 227.714L290.239 227.653L281.001 227.622H280.664C279.349 227.469 262.861 223.218 262.861 223.218H265.461L290.239 223.31Z" fill="#FFDDCE"/>
<path d="M293.848 165.961L322.939 216C328.017 214.317 333.493 217.07 335.175 222.147C336.858 227.225 334.105 232.7 329.027 234.382C326.549 235.208 323.826 234.994 321.502 233.77L290.208 238.511V238.113L320.951 233.434C318.84 232.149 317.28 230.1 316.638 227.714C315.781 226.124 316.454 223.371 316.454 223.371C316.821 221.413 317.77 219.639 319.207 218.263L318.198 216.55C313.028 215.755 304.432 214.47 290.147 212.268V211.87C301.006 213.553 311.223 215.113 317.953 216.122L290.055 168.163L288.25 165.074L279.379 149.842C279.471 149.842 273.995 135.925 273.995 135.925L273.261 139.32L258.517 186.178L252.276 205.937L257.293 206.732V207.13L252.154 206.334L251.909 207.099C253.592 207.986 255.121 209.087 256.498 210.372C257.691 211.35 258.7 212.543 259.465 213.889C261.331 216.672 262.463 219.884 262.769 223.218C262.891 224.655 262.86 226.124 262.707 227.561C262.34 230.742 261.208 233.77 259.434 236.401C256.895 239.153 256.467 239.918 256.467 239.918C255.916 240.438 255.305 240.958 254.693 241.417C253.255 242.487 251.695 243.374 250.043 244.047V244.169L255.274 243.374L257.048 243.099C257.079 243.221 257.109 243.344 257.14 243.496L255.396 243.772L250.135 244.567L251.053 249.308L251.236 250.348H248.483L248.605 244.751L245.883 245.24L246.862 250.348V250.256L245.913 245.24C245.424 245.332 244.935 245.393 244.445 245.423L242.549 245.699L242.518 245.515C231.261 245.515 222.145 236.4 222.145 225.175C222.145 219.976 224.133 214.96 227.712 211.167L170.386 149.567L192.748 173.607C187.456 166.878 171.151 147.089 171.151 147.089L170.356 149.567C169.438 153.42 168.429 157.427 167.358 161.495C167.266 161.832 167.175 162.168 167.083 162.535L166.104 166.052C162.28 179.724 158.242 191.347 153.99 200.859C153.868 201.104 153.776 201.349 153.654 201.624C149.616 210.555 145.394 217.559 141.02 222.637C142.458 226.644 140.378 231.079 136.37 232.547C132.363 233.984 127.927 231.904 126.459 227.898C125.021 223.891 127.102 219.456 131.109 217.988C133.556 217.101 136.279 217.498 138.359 219.058C142.641 213.889 146.557 206.915 150.075 198.963C150.166 198.718 150.289 198.474 150.411 198.229C155.03 187.769 158.915 175.748 162.188 164.064C162.678 162.015 163.137 160.578 163.137 160.578C166.44 148.19 168.979 136.445 170.692 127.697C171.427 126.81 172.283 125.862 173.201 124.883C173.262 124.945 173.384 124.975 173.476 124.975C173.598 124.975 173.69 124.914 173.751 124.853C173.904 124.7 173.904 124.455 173.751 124.302C174.547 123.446 175.403 122.559 176.29 121.611C175.801 124.364 175.159 127.759 174.394 131.582H211.53L214.559 135.925H201.986C192.595 135.803 183.204 134.916 173.966 133.264L173.476 135.925C172.925 138.617 172.283 141.492 171.61 144.489L211.989 187.83C212.295 188.839 212.693 189.818 213.182 190.766C213.243 190.888 213.396 190.98 213.519 190.98C213.549 190.98 213.61 190.98 213.641 190.98L214.62 190.674L231.108 208.384C233.31 206.885 235.758 205.814 238.358 205.264L236.706 196.669L234.748 186.453L232.821 187.004L228.875 188.166L228.324 186.331L228.202 185.903L244.109 181.254L244.751 183.517L238.969 185.23L242.64 204.469C242.61 204.469 242.549 204.469 242.518 204.469C242.304 204.499 242.151 204.713 242.181 204.927C242.212 205.111 244.935 222.147 245.332 224.502C245.485 225.389 245.332 226.032 244.935 226.429C244.537 226.827 243.65 227.011 242.64 226.827C242.426 226.796 242.212 226.919 242.151 227.133C242.12 227.347 242.243 227.561 242.457 227.622C242.793 227.683 243.13 227.714 243.466 227.714C244.2 227.745 244.904 227.5 245.455 227.011C245.883 226.613 246.342 225.818 246.097 224.38C245.699 222.025 242.946 204.989 242.946 204.805C242.916 204.713 242.854 204.591 242.763 204.53L247.963 205.325L255.886 180.183L256.773 177.369L257.507 177.155C257.629 177.125 257.721 177.033 257.752 176.941C257.813 176.849 257.813 176.727 257.752 176.605C257.752 176.605 257.599 176.299 257.324 175.748L269.865 135.925L270.844 132.866L251.511 135.925H235.758C235.36 134.426 234.932 132.958 234.534 131.582H271.242L272.619 127.239L278.339 109.101C279.991 108.795 281.643 108.398 283.264 107.908L279.532 119.592L275.066 133.753L292.013 162.902L293.848 165.961ZM326.212 230.528C329.057 230.528 331.352 228.234 331.352 225.39C331.352 222.545 329.057 220.251 326.212 220.251C323.368 220.251 321.073 222.545 321.073 225.39C321.073 228.203 323.368 230.528 326.212 230.528ZM133.617 221.811C131.659 221.811 130.069 223.401 130.069 225.359C130.069 227.316 131.659 228.907 133.617 228.907C135.575 228.907 137.166 227.316 137.166 225.359C137.196 223.401 135.575 221.811 133.617 221.811ZM234.779 186.423C235.176 188.533 235.696 191.164 235.727 191.5C235.788 191.806 236.339 188.411 236.736 185.872L234.779 186.423ZM245.944 238.389C231.506 239.857 229.028 226.093 228.936 225.481C228.905 225.267 228.691 225.114 228.477 225.145C228.263 225.175 228.11 225.389 228.141 225.604C228.171 225.757 230.588 239.276 243.864 239.276C244.598 239.276 245.302 239.245 246.036 239.153C246.25 239.123 246.403 238.939 246.403 238.725C246.342 238.511 246.158 238.358 245.944 238.389ZM244.476 210.005C244.262 209.974 244.047 210.127 244.047 210.341C244.047 210.555 244.17 210.769 244.384 210.769C244.904 210.83 256.987 212.452 256.62 226.521C256.62 226.735 256.804 226.919 257.018 226.919C257.232 226.919 257.415 226.735 257.415 226.521C257.782 211.748 244.598 210.035 244.476 210.005Z" fill="#FFDDCE"/>
<path d="M163.901 134.426L163.81 138.769C162.005 138.739 160.231 138.586 158.456 138.311C160.231 137.148 161.882 135.833 163.412 134.396L163.901 134.426Z" fill="#FFDDCE"/>
<path d="M300.425 95.2451C306.268 97.2026 307.797 102.892 301.679 105.553C298.987 106.715 294.613 107.143 289.688 107.113C288.373 107.113 287.057 107.082 285.681 107.021C292.9 104.36 297.733 100.108 300.425 95.2451Z" fill="#FFDDCE"/>
<path d="M156.774 138.433C153.317 140.299 151.39 140.115 150.564 139.871C151.635 138.769 153.348 136.17 153.746 135.558C153.868 135.374 153.807 135.13 153.623 135.007C153.44 134.885 153.195 134.946 153.073 135.13C151.757 137.118 150.136 139.32 149.677 139.595C147.719 140.115 146.955 138.922 146.71 138.433L150.931 132.683C151.054 132.499 151.023 132.255 150.84 132.132C150.656 132.01 150.411 132.04 150.289 132.224L146.037 138.005C145.364 138.127 144.691 137.944 144.171 137.546C143.773 137.179 143.559 136.659 143.498 136.139L147.383 130.909C147.505 130.725 147.475 130.481 147.291 130.358C147.108 130.236 146.863 130.267 146.741 130.45L142.856 135.711C142.274 136.017 141.02 135.68 140.408 135.038C139.858 134.457 140.164 134.029 140.286 133.906C140.714 133.295 141.081 132.652 141.449 131.979C142.519 130.052 143.835 127.636 145.731 126.719C150.35 124.455 157.325 120.938 160.72 119.194L168.735 127.208C166.135 131.001 161.026 136.139 156.774 138.433ZM163.749 127.086C163.657 126.933 161.301 123.415 158.12 122.589C157.906 122.528 157.692 122.651 157.631 122.865C157.569 123.079 157.692 123.293 157.906 123.354C160.812 124.088 163.045 127.483 163.076 127.514C163.137 127.636 163.259 127.697 163.412 127.697C163.504 127.697 163.565 127.667 163.626 127.636C163.81 127.514 163.871 127.269 163.749 127.086Z" fill="white"/>
<path d="M145.333 125.985C149.83 123.752 156.621 120.357 160.078 118.613L160.659 119.194C157.263 120.907 150.289 124.425 145.67 126.719C143.773 127.667 142.458 130.052 141.387 131.979C141.051 132.652 140.653 133.295 140.225 133.906C140.133 134.059 139.796 134.457 140.347 135.038C140.989 135.711 142.244 136.047 142.794 135.711L146.679 130.45C146.802 130.267 147.046 130.236 147.23 130.358C147.413 130.481 147.444 130.725 147.322 130.909L143.437 136.139C143.467 136.69 143.712 137.179 144.11 137.546C144.63 137.944 145.333 138.127 145.976 138.005L150.228 132.194C150.35 132.01 150.595 131.979 150.778 132.102C150.962 132.224 150.992 132.469 150.87 132.652L146.649 138.403C146.863 138.892 147.658 140.085 149.616 139.565C150.075 139.289 151.696 137.087 153.011 135.099C153.134 134.916 153.378 134.855 153.562 134.977C153.746 135.099 153.807 135.344 153.684 135.527C153.287 136.139 151.543 138.739 150.503 139.84C151.329 140.085 153.256 140.268 156.713 138.403C160.965 136.109 166.073 130.97 168.643 127.177L169.224 127.759C167.511 130.175 165.553 132.408 163.381 134.396C161.852 135.833 160.2 137.148 158.426 138.311C157.967 138.617 157.508 138.861 157.08 139.106C154.633 140.421 152.858 140.788 151.635 140.788C150.962 140.819 150.289 140.666 149.708 140.36C147.352 140.941 146.312 139.442 145.976 138.77C145.119 138.892 144.263 138.647 143.59 138.097C143.131 137.668 142.825 137.118 142.703 136.506C141.601 136.659 140.5 136.292 139.735 135.497C139.123 134.946 139.032 133.998 139.552 133.325C139.949 132.744 140.316 132.132 140.653 131.49L140.745 131.337C141.387 130.052 142.182 128.86 143.07 127.728C143.743 127.024 144.507 126.413 145.333 125.985Z" fill="#406829"/>
<path d="M280.266 63.9561L275.739 66.5865H257.079C260.688 63.0996 264.573 59.8575 268.672 56.9824C272.435 59.5211 276.289 61.8456 280.266 63.9561Z" fill="white"/>
<path d="M274.393 67.3809L253.378 79.5847C252.582 79.1259 251.634 78.5754 250.533 77.9637C250.135 74.905 252.858 70.99 256.345 67.3809H274.393Z" fill="white"/>
<path d="M278.308 109.07L272.588 127.207L268.611 131.551H237.624C241.784 123.506 246.005 115.432 248.911 109.896C248.942 109.926 249.003 109.926 249.034 109.926C251.94 110.202 254.846 110.354 257.752 110.324C266.47 110.324 275.127 109.315 283.601 107.296C283.815 107.265 283.937 107.051 283.906 106.837C283.876 106.623 283.662 106.501 283.448 106.531H283.417C265.155 110.997 249.278 109.162 249.125 109.131C248.911 109.1 248.728 109.253 248.697 109.467C237.409 108.458 226.183 106.898 215.079 104.727C215.079 104.727 227.345 114.208 231.291 122.13C232.301 124.179 233.402 127.574 234.534 131.52C234.932 132.927 235.329 134.365 235.758 135.863H251.512L270.844 132.835L269.866 135.894H264.696C255.427 146.201 246.587 156.54 245.638 160.24C241.539 152.472 238.205 144.305 235.727 135.894C235.666 135.68 235.452 135.557 235.238 135.619C235.023 135.68 234.901 135.894 234.962 136.108C237.532 144.764 240.958 153.144 245.21 161.097C245.271 161.219 245.424 161.311 245.546 161.311C245.608 161.311 245.669 161.28 245.73 161.25C245.791 161.219 245.822 161.158 245.852 161.127C249.125 163.207 252.643 168.407 254.907 172.261L254.999 172.23C255.182 172.169 255.366 172.261 255.458 172.414C256.284 173.79 256.895 174.983 257.293 175.717C257.568 176.237 257.721 176.573 257.721 176.573C257.782 176.665 257.782 176.788 257.721 176.91C257.691 177.032 257.599 177.093 257.477 177.124L256.742 177.338L254.754 177.98C255.121 178.684 255.488 179.418 255.855 180.152L247.932 205.294L242.732 204.499C242.824 204.56 242.885 204.651 242.916 204.774C242.946 204.957 245.669 221.994 246.066 224.349C246.311 225.786 245.852 226.582 245.424 226.979C244.873 227.469 244.17 227.713 243.436 227.683C243.099 227.683 242.763 227.652 242.426 227.591C242.212 227.56 242.059 227.346 242.12 227.102C242.151 226.888 242.365 226.735 242.61 226.796C243.619 227.01 244.415 226.857 244.904 226.398C245.393 225.939 245.455 225.358 245.302 224.471C244.904 222.116 242.151 205.08 242.151 204.896C242.12 204.682 242.273 204.468 242.487 204.437C242.518 204.437 242.579 204.437 242.61 204.437L238.939 185.229L244.721 183.516L244.048 181.253L228.141 185.902L228.263 186.33L214.528 190.643L213.549 190.949C213.519 190.949 213.457 190.949 213.427 190.949C213.274 190.949 213.152 190.857 213.09 190.735C212.601 189.787 212.203 188.808 211.897 187.799C211.438 186.116 211.224 184.098 212.326 182.782C212.754 182.262 213.733 181.59 215.17 180.641C215.782 179.938 216.578 179.418 217.465 179.173C217.74 179.112 218.046 179.051 218.352 179.051C221.136 177.216 224.409 174.983 226.948 172.475C226.917 172.597 226.948 172.72 227.039 172.811C227.101 172.872 227.223 172.934 227.315 172.934C227.407 172.934 227.529 172.903 227.59 172.811C235.329 165.348 226.734 153.481 226.642 153.359C226.519 153.206 226.305 153.144 226.122 153.267C223.032 148.22 218.841 142.133 214.467 135.833L211.438 131.489C205.412 122.803 199.386 114.025 195.623 107.082C194.95 105.828 194.369 104.543 193.88 103.228C196.969 99.8022 199.6 96.6213 201.16 94.0521C202.965 91.0546 204.831 86.8949 206.513 82.6128C209.42 81.7258 212.387 81.2059 215.415 80.9918C226.458 80.2883 247.871 79.8295 252.123 79.7378C250.043 78.5449 246.923 76.8321 243.833 75.2722C239.031 76.4956 234.412 77.3214 231.72 76.8015C238.297 76.3733 244.659 72.3053 250.471 67.2892H241.111C240.56 67.9621 240.04 68.635 239.49 69.3385C239.428 69.4302 239.306 69.4914 239.184 69.4914C238.97 69.4914 238.786 69.3079 238.786 69.0938C238.786 69.002 238.817 68.9408 238.878 68.8491C239.275 68.2985 239.704 67.7786 240.101 67.2586H227.315C227.101 67.2586 226.917 67.0751 226.917 66.861C226.917 66.6469 227.101 66.4634 227.315 66.4634H240.774C251.542 53.3419 261.882 48.6011 261.973 48.5399C262.157 48.4481 262.402 48.5399 262.493 48.7234C262.585 48.9069 262.493 49.1516 262.31 49.2434C262.218 49.3046 252.276 53.8619 241.814 66.4328H251.42C253.347 64.72 255.213 62.9154 256.987 61.1414C265.277 52.8525 281.123 51.6597 281.123 51.6597C285.497 52.302 281.367 56.2782 275.708 60.3461C277.483 61.4167 279.318 62.4566 281.092 63.3436L283.509 61.9366C285.956 63.3436 288.617 64.6588 291.279 66.4328H316.699C316.913 66.4328 317.097 66.6163 317.097 66.8304C317.097 67.0445 316.913 67.228 316.699 67.228H292.41C295.775 69.6749 298.559 72.8865 300.547 76.5568C303.759 82.3376 303.729 89.3724 300.486 95.1226C297.794 99.9552 292.931 104.207 285.772 106.898C287.118 106.959 288.464 106.99 289.78 106.99C288.587 108.642 287.302 110.385 285.956 112.159C284.702 113.75 282.469 116.288 279.654 119.408L283.325 107.724C281.612 108.336 279.991 108.764 278.308 109.07ZM256.834 176.512C256.528 175.901 255.855 174.616 254.938 173.087L224.133 183.18C223.98 183.241 223.827 183.18 223.705 183.058C221.594 180.58 219.514 179.51 217.709 179.999C216.975 180.213 216.302 180.641 215.813 181.222L215.782 181.253L215.721 181.314C214.528 182.079 213.396 182.874 212.999 183.333C211.469 185.168 213.152 189.022 213.672 190.123L256.834 176.512ZM258.945 79.4625C258.731 79.4625 258.547 79.646 258.578 79.8907C258.578 80.1048 258.761 80.2883 259.006 80.2577H259.037C263.686 79.7683 269.896 77.6885 277.544 74.1099C283.233 71.4489 287.608 68.8797 287.669 68.8491C287.853 68.7267 287.914 68.4821 287.791 68.2985C287.669 68.115 287.455 68.0539 287.271 68.1456C287.088 68.268 269.804 78.3002 258.945 79.4625ZM275.494 78.7284C275.647 78.5755 275.647 78.3308 275.494 78.1779C275.341 78.0249 275.096 78.0249 274.944 78.1779C274.852 78.2696 273.078 80.166 273.72 81.9705C274.179 83.2857 275.739 84.1727 278.339 84.5704H278.37C278.584 84.6009 278.767 84.4174 278.798 84.2033C278.828 83.9892 278.645 83.8057 278.431 83.7751C276.167 83.4081 274.791 82.7046 274.423 81.6953C273.965 80.3495 275.464 78.759 275.494 78.7284ZM205.259 107.357L227.009 142.929C227.07 143.051 227.192 143.112 227.345 143.112C227.407 143.112 227.498 143.082 227.559 143.051C227.743 142.929 227.804 142.684 227.682 142.5L205.932 106.929C205.779 106.776 205.535 106.745 205.382 106.868C205.259 106.99 205.198 107.173 205.259 107.357ZM233.8 91.6969C215.843 90.5958 205.076 91.2993 203.424 93.7156C203.21 93.9909 203.149 94.3273 203.271 94.6638C203.332 94.8167 203.485 94.9085 203.638 94.8779C203.699 94.8779 203.76 94.8779 203.791 94.8473C203.975 94.7555 204.066 94.5414 203.975 94.3273C204.005 94.2356 204.066 94.1438 204.127 94.0826C204.525 93.6544 205.81 92.8592 210.245 92.3698C215.415 91.8193 223.338 91.8498 233.739 92.4922C265.614 94.4191 275.005 89.1277 275.402 88.9136C275.617 88.8218 275.678 88.5771 275.586 88.3936C275.494 88.2101 275.249 88.1183 275.066 88.2101C275.035 88.2101 275.005 88.2407 275.005 88.2407C274.974 88.2407 272.619 89.6171 266.378 90.7182C260.627 91.6969 250.288 92.7063 233.8 91.6969ZM250.502 77.9638C251.603 78.5755 252.552 79.126 253.347 79.5848L274.393 67.381H256.345C252.827 70.9901 250.104 74.9051 250.502 77.9638ZM257.11 66.5857H275.769L280.297 63.9553C276.32 61.8449 272.466 59.5203 268.734 56.9817C264.604 59.8568 260.719 63.0683 257.11 66.5857Z" fill="#406829"/>
<path d="M190.974 31.9315C190.943 31.7786 190.821 31.6563 190.668 31.6257C190.515 31.5951 190.362 31.6563 190.27 31.7786C187.578 35.6325 183.296 38.3546 183.265 38.3852C183.204 38.4158 178.31 41.7803 175.403 39.9757C172.406 38.1099 170.815 29.2706 170.815 29.1788C170.784 29.0565 170.693 28.9341 170.57 28.8729L168.827 28.1695C168.827 25.2638 168.949 21.624 169.224 18.4737L174.363 18.1984L173.17 14.6504L176.719 18.596C176.719 18.596 181.98 18.1984 184.489 18.596C186.141 18.8713 191.157 27.1907 194.4 32.8185C192.564 35.2348 190.882 37.7429 189.322 40.3733L188.924 40.1592C191.953 36.4889 191.004 32.1151 190.974 31.9315ZM173.721 20.2782C173.415 20.2782 173.201 21.0735 173.201 21.9911C173.201 22.9392 173.446 23.7039 173.721 23.7039C173.996 23.7039 174.272 22.9086 174.272 21.9911C174.241 21.0429 173.996 20.2782 173.721 20.2782ZM178.646 27.833C178.524 27.6495 178.279 27.6189 178.095 27.7412C175.495 29.607 173.262 29.3317 173.232 29.3317C173.017 29.3011 172.803 29.4541 172.773 29.6682C172.742 29.8823 172.895 30.0964 173.109 30.127C173.262 30.1576 173.415 30.1576 173.568 30.1576C175.373 30.0964 177.086 29.4847 178.524 28.4141C178.707 28.2612 178.768 28.0165 178.646 27.833Z" fill="white"/>
<path d="M224.653 30.6783C224.561 30.7395 223.583 31.5347 217.954 31.8712C216.424 31.8406 214.926 31.9017 213.396 32.0241H212.295C210.001 31.9629 207.706 32.2994 205.534 33.0028C206.636 32.177 207.584 31.1677 208.349 30.036L201.282 24.5917L210.337 27.2832C210.337 27.2832 214.161 19.7591 215.231 12.4796C218.352 11.1032 221.9 11.1644 224.959 12.6631C233.585 16.6087 226.55 28.4761 225.173 30.6171C225.02 30.4948 224.776 30.5254 224.653 30.6783Z" fill="#FFC054"/>
<path d="M213.121 64.9339L213.274 64.1387C213.213 64.5975 213.152 65.0257 213.09 65.4845L212.907 65.1786C213.029 65.148 213.09 65.0257 213.121 64.9339Z" fill="#FFC054"/>
<path d="M257.018 61.2947C255.243 63.0993 253.377 64.8733 251.45 66.5861H241.814C252.276 54.0152 262.218 49.4273 262.31 49.3967C262.493 49.305 262.585 49.0603 262.493 48.8768C262.401 48.6933 262.157 48.6015 261.973 48.6933C261.851 48.7544 251.511 53.4953 240.774 66.6167H227.315C227.1 66.6167 226.917 66.8002 226.917 67.0143C226.917 67.2285 227.1 67.412 227.315 67.412H240.132C239.734 67.9319 239.306 68.4519 238.908 69.0024C238.786 69.186 238.816 69.4306 239 69.553C239.061 69.6142 239.153 69.6448 239.245 69.6448C239.367 69.6448 239.489 69.5836 239.551 69.4918C240.101 68.7883 240.652 68.0849 241.172 67.4426H250.532C244.72 72.4587 238.358 76.5266 231.811 76.9548C230.71 77.0466 229.639 77.016 228.538 76.8631C225.724 76.496 223.063 75.4255 220.738 73.8045C219.575 73.0092 218.505 72.1222 217.526 71.1435C215.262 67.5955 214.589 61.6924 214.406 58.8784L215.109 55.4834C215.14 55.2693 215.017 55.0552 214.803 55.0246C214.589 54.994 214.375 55.1163 214.344 55.3304L212.356 64.8121C212.325 65.0262 212.448 65.2098 212.631 65.2709C212.081 67.0755 209.664 75.0279 206.636 82.7356C204.953 86.9871 203.087 91.1774 201.282 94.1748C199.692 96.7441 197.092 99.925 194.002 103.351C188.618 109.284 181.766 116.013 176.352 121.641C175.464 122.559 174.608 123.446 173.813 124.333L164.024 115.249C163.84 115.126 163.595 115.126 163.473 115.31C163.351 115.463 163.351 115.677 163.504 115.83L173.293 124.914C172.375 125.923 171.518 126.841 170.784 127.728C170.539 128.003 170.295 128.278 170.081 128.554L169.346 127.82L168.765 127.238L160.751 119.225L160.169 118.644L158.609 117.084L159.527 115.86L162.922 111.364C169.744 102.28 182.531 85.1213 185.1 81.1146C188.618 75.6396 189.046 58.5726 193.635 48.6627C193.635 48.6627 193.666 48.6627 193.696 48.6933C193.727 48.6933 193.757 48.6933 193.818 48.6933C194.002 48.6933 194.155 48.5709 194.216 48.418C194.216 48.3568 196.327 41.3832 199.692 38.3246C199.875 38.2022 199.875 37.9269 199.753 37.774C199.631 37.6211 199.355 37.5905 199.202 37.7128L199.172 37.7434C195.715 40.8632 193.635 47.6227 193.482 48.1733L186.722 45.5735C187.425 44.0748 188.19 42.576 189.046 41.1691C189.169 40.955 189.322 40.7103 189.444 40.4962C191.004 37.8964 192.687 35.3577 194.522 32.9414C196.204 35.8777 197.397 38.0799 197.397 38.0799C199.478 37.1011 201.497 36 203.393 34.746V34.7766C203.454 34.8683 203.577 34.9295 203.699 34.9295C203.791 34.9295 203.883 34.8989 203.944 34.8377C204.403 34.5013 204.892 34.2566 205.412 34.0425C212.845 37.3152 239.214 36.2141 239.214 36.2141L281.123 51.7825C281.123 51.7825 265.307 52.9753 257.018 61.2947ZM190.668 81.7569C190.545 81.7263 187.762 81.0228 185.681 81.8486C185.467 81.9404 185.376 82.1545 185.467 82.3686C185.529 82.5215 185.681 82.6133 185.834 82.6133C185.896 82.6133 185.926 82.6133 185.987 82.5827C187.823 81.8486 190.454 82.4909 190.484 82.5215C190.698 82.5827 190.912 82.4603 190.974 82.2462C191.004 82.0321 190.882 81.818 190.668 81.7569ZM205.045 80.7169C203.913 80.197 196.48 83.2862 193.39 89.5869C190.301 95.8876 192.35 100.384 192.442 100.567C192.503 100.72 192.656 100.812 192.809 100.781C192.87 100.781 192.931 100.781 192.962 100.751C193.145 100.659 193.237 100.414 193.145 100.231C193.145 100.2 191.188 95.8265 194.094 89.9539C197.061 83.8979 203.974 81.2675 204.709 81.451C204.892 81.5427 205.137 81.451 205.229 81.2675C205.32 81.084 205.259 80.8393 205.076 80.7475C205.045 80.7169 205.045 80.7169 205.045 80.7169ZM239.398 60.4383L220.921 50.8343C220.738 50.7119 220.493 50.7731 220.371 50.9566C220.248 51.1402 220.309 51.3848 220.493 51.5072C220.524 51.5072 220.524 51.5378 220.554 51.5378L239.031 61.1418C239.092 61.1724 239.153 61.1724 239.214 61.1724C239.428 61.1724 239.612 60.9889 239.612 60.7748C239.612 60.6218 239.52 60.4995 239.398 60.4383Z" fill="#FFC054"/>
<path d="M173.69 23.704C173.384 23.704 173.17 22.9087 173.17 21.9911C173.17 21.0736 173.415 20.2783 173.69 20.2783C173.996 20.2783 174.241 21.0736 174.241 21.9911C174.241 22.9087 173.996 23.704 173.69 23.704Z" fill="#406829"/>
<path d="M173.568 30.1274C173.415 30.1274 173.262 30.1274 173.109 30.0968C172.895 30.0662 172.742 29.8827 172.773 29.638C172.803 29.4239 172.987 29.271 173.231 29.3016C173.262 29.3016 175.495 29.5769 178.095 27.7111C178.279 27.5888 178.523 27.6193 178.646 27.8029C178.768 27.9864 178.738 28.2311 178.554 28.3534C177.086 29.4851 175.373 30.0968 173.568 30.1274Z" fill="#406829"/>
<path d="M199.08 37.6518C199.233 37.4989 199.478 37.4989 199.631 37.6518C199.784 37.8047 199.784 38.0494 199.631 38.2024L199.6 38.2329C196.235 41.2916 194.125 48.2652 194.125 48.3264C194.063 48.5099 193.911 48.6016 193.727 48.6016C193.696 48.6016 193.666 48.6016 193.605 48.6016C193.574 48.6016 193.574 48.6016 193.543 48.5711C193.36 48.4793 193.268 48.2958 193.329 48.1123V48.0817C193.543 47.5311 195.593 40.8022 199.08 37.6518Z" fill="#406829"/>
<path d="M239.214 61.1724C239.153 61.1724 239.092 61.1724 239.031 61.1418L220.554 51.5683C220.34 51.4766 220.248 51.2625 220.34 51.0484C220.432 50.8343 220.646 50.7425 220.86 50.8343C220.891 50.8343 220.891 50.8648 220.921 50.8648L239.398 60.4689C239.581 60.5606 239.673 60.8053 239.551 61.0194C239.49 61.1112 239.367 61.1724 239.214 61.1724Z" fill="#406829"/>
<path d="M204.709 81.4198C203.974 81.2363 197.061 83.8667 194.094 89.9228C191.218 95.8259 193.146 100.169 193.146 100.2C193.237 100.383 193.146 100.628 192.962 100.72C192.901 100.75 192.84 100.75 192.809 100.75C192.656 100.75 192.503 100.659 192.442 100.536C192.35 100.353 190.331 95.8259 193.39 89.5557C196.449 83.2856 203.913 80.1658 205.045 80.6858C205.259 80.7775 205.32 81.0222 205.259 81.2057C205.137 81.4198 204.923 81.5116 204.709 81.4198Z" fill="#406829"/>
<path d="M205.351 33.9507C204.831 34.1342 204.342 34.4095 203.883 34.7459C203.822 34.8071 203.73 34.8377 203.638 34.8377C203.516 34.8377 203.424 34.7765 203.332 34.6848V34.6542C201.405 35.8776 199.386 37.0093 197.306 37.9575C197.306 37.9575 196.113 35.7553 194.43 32.819C191.188 27.1606 186.171 18.8412 184.519 18.5965C182.011 18.1989 176.749 18.5965 176.749 18.5965L173.201 14.6509L174.363 18.1989L169.224 18.5353C168.98 21.6857 168.857 25.3254 168.827 28.2311L170.54 28.9346C170.662 28.9958 170.754 29.0875 170.784 29.2404C170.784 29.3322 172.375 38.1716 175.342 40.0373C178.248 41.8419 183.173 38.508 183.204 38.4469C183.234 38.4163 187.517 35.6941 190.209 31.8403C190.301 31.7179 190.454 31.6568 190.607 31.6873C190.76 31.7179 190.882 31.8403 190.913 31.9932C190.974 32.1767 191.922 36.5505 188.924 40.2209L189.322 40.435C189.169 40.6797 189.047 40.8938 188.924 41.1079C187.272 40.1291 185.315 39.2421 183.571 39.2115C182.776 39.7315 178.065 42.6983 174.945 40.7408C171.916 38.8445 170.325 31.0756 170.05 29.6075L168.276 28.904C168.123 28.8428 168.031 28.6899 168.031 28.537C168.031 27.65 168.062 22.9397 168.398 18.6271L168.031 18.6577C164.88 7.58548 169.622 -0.703357 184.489 -0.152807C199.386 0.367157 213.519 1.95763 213.519 1.95763C215.599 4.58804 215.813 8.50306 215.262 12.4487C214.192 19.7588 210.368 27.2524 210.368 27.2524L201.313 24.5608L208.38 30.0051C207.615 31.1368 206.667 32.1461 205.565 32.972C207.737 32.2685 210.031 31.932 212.326 31.9932H213.427C214.926 31.8709 216.455 31.8097 217.985 31.8403C223.613 31.5038 224.592 30.7086 224.684 30.6474C224.806 30.4945 225.021 30.4333 225.204 30.5557C225.357 30.6474 225.418 30.8615 225.357 31.0144L239.214 36.2141C239.214 36.2141 212.846 37.3152 205.351 33.9507Z" fill="#406829"/>
<path d="M213.274 64.1081L213.121 64.9033C213.09 65.0256 213.029 65.1174 212.937 65.148C212.876 65.1786 212.815 65.2092 212.754 65.2092H212.662H212.631C212.448 65.148 212.326 64.9645 212.356 64.7504L214.345 55.2687C214.375 55.0546 214.589 54.9016 214.803 54.9628C215.018 54.9934 215.17 55.2075 215.109 55.4216L214.406 58.7861C214.589 61.6 215.262 67.5337 217.526 71.0511C215.813 69.3689 214.345 67.5031 213.121 65.4539C213.152 65.0256 213.213 64.5669 213.274 64.1081Z" fill="#406829"/>
<path d="M190.484 82.5213C190.454 82.5213 187.823 81.8484 185.988 82.5825C185.926 82.613 185.896 82.613 185.835 82.613C185.621 82.613 185.437 82.4295 185.437 82.2154C185.437 82.0625 185.529 81.9096 185.682 81.8484C187.762 81.0226 190.546 81.726 190.668 81.7566C190.882 81.8178 191.004 82.0319 190.943 82.246C190.913 82.4601 190.668 82.5825 190.484 82.5213Z" fill="#406829"/>
<path d="M275.005 88.2101C275.188 88.0878 275.433 88.1184 275.555 88.3019C275.678 88.4854 275.647 88.7301 275.464 88.8524C275.433 88.883 275.433 88.883 275.403 88.883C275.005 89.0971 265.644 94.4191 233.739 92.4616C223.338 91.8193 215.415 91.7887 210.246 92.3392C205.81 92.8286 204.525 93.5933 204.128 94.0521C204.066 94.1132 204.005 94.205 203.975 94.2968C204.066 94.4803 203.975 94.725 203.791 94.8167C203.73 94.8473 203.699 94.8473 203.638 94.8473C203.485 94.8473 203.332 94.7556 203.271 94.6332C203.149 94.3273 203.21 93.9603 203.424 93.685C205.076 91.2993 215.844 90.5958 233.8 91.6664C250.288 92.6757 260.628 91.6664 266.378 90.657C272.619 89.5865 274.974 88.2407 275.005 88.2101Z" fill="white"/>
<path d="M205.382 106.807C205.565 106.684 205.81 106.746 205.932 106.929L227.682 142.531C227.804 142.715 227.743 142.96 227.56 143.082C227.498 143.113 227.437 143.143 227.345 143.143C227.223 143.143 227.07 143.082 227.009 142.96L205.259 107.357C205.137 107.174 205.198 106.929 205.382 106.807Z" fill="white"/>
<path d="M213.702 190.093C213.182 188.992 211.469 185.138 213.029 183.303C213.427 182.844 214.559 182.049 215.752 181.284L215.813 181.223L215.843 181.193C216.333 180.581 217.006 180.153 217.74 179.969C219.545 179.51 221.625 180.581 223.736 183.028C223.827 183.15 224.011 183.211 224.164 183.15L254.968 173.057C255.855 174.617 256.559 175.871 256.865 176.482L213.702 190.093Z" fill="white"/>
<path d="M235.727 191.499C235.666 191.193 235.176 188.532 234.779 186.422L236.767 185.841C236.339 188.41 235.788 191.805 235.727 191.499Z" fill="#406829"/>
<path d="M308.96 227.713C309.633 227.499 315.904 225.603 316.485 223.37C316.485 223.37 315.812 226.123 316.668 227.713H308.899H308.96Z" fill="#406829"/>
<path d="M192.778 173.607L170.386 149.566L171.182 147.089C171.182 147.089 187.486 166.878 192.778 173.607Z" fill="#406829"/>
<path d="M201.986 135.895H206.972C205.29 135.925 203.607 135.925 201.986 135.895Z" fill="#406829"/>
<path d="M173.966 133.233C183.235 134.885 192.595 135.772 201.986 135.894H173.476L173.966 133.233Z" fill="#406829"/>
<path d="M256.589 210.402C255.213 209.086 253.683 207.985 252.001 207.129L252.246 206.364L257.385 207.159V206.762L252.368 205.967L258.608 186.208C259.006 187.217 259.404 188.288 259.801 189.419C260.505 191.438 261.086 193.487 261.545 195.598C267.327 183.058 276.657 172.475 288.342 165.104L290.147 168.193C277.605 176.115 268 187.951 262.799 201.868C263.136 203.795 263.442 205.752 263.686 207.771C271.885 209.056 281.276 210.493 290.208 211.87V212.267C282.958 211.136 274.24 209.79 263.748 208.169C264.421 213.185 264.971 218.385 265.461 223.278H262.86C262.555 219.944 261.423 216.733 259.557 213.95C258.761 212.573 257.783 211.38 256.589 210.402Z" fill="#406829"/>
<path d="M273.322 139.32L274.056 135.925C274.056 135.925 279.532 149.872 279.44 149.841L273.322 139.32Z" fill="#406829"/>
<path d="M258.608 262.153L258.547 264.539L244.139 264.141L244.2 261.756L249.156 261.909C249.125 261.847 249.125 261.756 249.095 261.694V261.603L248.942 260.807L248.238 257.168L247.107 251.173L248.452 258.238L248.605 251.173H251.542L252.735 257.382L253.408 260.899V260.991C253.439 261.266 253.439 261.511 253.377 261.786C253.347 261.878 253.316 261.97 253.286 262.031L258.608 262.153Z" fill="#FFDDCE"/>
<path d="M0.397461 295.768H126.337C90.6994 292.006 62.8318 261.787 62.8318 225.175C62.8318 186.025 94.6761 154.215 133.801 154.215C143.926 154.215 153.899 156.356 163.106 160.547C163.106 160.547 162.647 161.984 162.158 164.034C153.287 159.904 143.59 157.763 133.801 157.763C96.6339 157.763 66.3803 188.013 66.3803 225.175C66.3803 262.337 96.6339 292.587 133.801 292.587C161.791 292.587 185.835 275.459 196.021 251.143H166.012C165.798 251.143 165.615 250.959 165.615 250.745C165.615 250.531 165.798 250.348 166.012 250.348H196.358C209.114 218.66 196.143 182.416 166.165 166.022L167.144 162.504C198.713 179.265 212.876 216.917 200.212 250.348H246.464L246.923 250.256V250.348L245.944 245.24L248.667 244.75L248.575 250.348H251.328L251.144 249.308C253.775 248.512 255.672 247.411 255.794 245.546C255.794 244.934 255.672 244.353 255.488 243.772L257.232 243.496C257.201 243.374 257.171 243.221 257.14 243.099L255.366 243.374C255.213 242.823 254.999 242.15 254.754 241.416C255.366 240.958 255.947 240.468 256.528 239.918C256.528 239.918 256.957 239.184 259.495 236.4C261.27 233.739 262.371 230.711 262.769 227.561C262.922 226.123 262.922 224.655 262.83 223.218C262.83 223.218 279.379 227.5 280.664 227.622L265.919 227.591C266.501 233.036 267.112 237.868 267.908 241.508L290.239 238.113V238.511L267.969 241.906C268.458 244.047 269.009 245.698 269.682 246.738C270.416 247.901 271.12 249.124 271.701 250.378H306.818C307.033 250.378 307.216 250.562 307.216 250.776C307.216 250.99 307.033 251.173 306.818 251.173H272.007C272.955 253.284 273.781 255.455 274.423 257.688H274.576C274.76 257.688 274.882 257.811 274.943 257.964C275.647 260.38 275.953 262.031 275.953 262.093C275.984 262.215 275.953 262.337 275.861 262.429C275.8 262.521 275.678 262.551 275.555 262.551L269.774 262.337C282.255 281.24 303.362 292.587 325.998 292.587C363.165 292.587 393.419 262.337 393.419 225.175C393.419 188.013 363.165 157.763 325.998 157.763C314.772 157.763 303.698 160.577 293.818 165.93L292.043 162.841C302.444 157.152 314.129 154.154 325.998 154.185C365.154 154.185 396.967 186.025 396.967 225.145C396.967 261.756 369.1 291.975 333.462 295.737H440.099C440.314 295.737 440.497 295.921 440.497 296.135C440.497 296.349 440.314 296.533 440.099 296.533H0.397461C0.183319 296.533 -0.000213623 296.349 -0.000213623 296.135C-0.000213623 295.921 0.183319 295.768 0.397461 295.768ZM267.174 258.086C267.847 259.248 268.52 260.41 269.254 261.542L275.096 261.756C274.974 261.144 274.699 259.952 274.271 258.453L267.174 258.086ZM265.461 262.184L253.347 261.756C253.408 261.481 253.408 261.236 253.377 260.961L264.971 261.359C264.298 260.227 263.625 259.065 263.013 257.872L252.704 257.352L251.511 251.143H248.575L248.422 258.208L247.076 251.143L248.208 257.138L242.518 256.862C242.304 256.862 242.151 256.709 242.151 256.495C241.967 254.263 238.847 252.397 238.235 252.244C236.216 252.764 234.932 253.376 234.35 254.11C231.934 257.138 231.934 259.432 231.995 260.196L248.881 260.808L249.034 261.603L231.628 260.961C231.444 260.961 231.322 260.839 231.261 260.686C231.23 260.563 230.466 257.658 233.708 253.62C234.412 252.733 235.819 252.03 238.082 251.479C238.113 251.479 238.174 251.479 238.205 251.479C238.45 251.51 238.664 251.602 238.878 251.724C239.734 251.54 240.652 251.357 241.6 251.204H199.845C190.362 275.336 168.001 293.015 141.265 295.829H318.473C296.571 293.382 276.962 280.995 265.461 262.184Z" fill="#406829"/>
<path d="M227.254 172.2C233.769 165.685 227.193 155.531 226.214 154.093L226.091 153.91C225.969 153.726 226 153.482 226.183 153.359H226.214C226.397 153.267 226.611 153.298 226.734 153.451C226.826 153.573 235.421 165.441 227.682 172.904C227.621 172.965 227.499 173.026 227.407 173.026C227.315 173.026 227.193 172.996 227.131 172.904C227.04 172.812 227.009 172.69 227.04 172.567C227.04 172.476 227.101 172.414 227.131 172.353L227.254 172.2Z" fill="white"/>
<path d="M245.852 161.128C245.822 161.189 245.76 161.22 245.73 161.25C245.669 161.281 245.607 161.312 245.546 161.312C245.393 161.312 245.271 161.22 245.21 161.098C240.958 153.145 237.532 144.765 234.962 136.109C234.901 135.895 235.023 135.68 235.237 135.619C235.452 135.558 235.666 135.68 235.727 135.895C238.235 144.306 241.539 152.472 245.638 160.241L245.913 160.73C245.944 160.853 245.944 161.006 245.852 161.128Z" fill="white"/>
<path d="M248.697 109.529C248.728 109.315 248.912 109.162 249.126 109.193C249.279 109.223 265.155 111.028 283.417 106.593C283.631 106.532 283.845 106.654 283.907 106.868C283.968 107.082 283.845 107.296 283.631 107.358H283.601C275.127 109.376 266.44 110.386 257.752 110.386C254.846 110.416 251.94 110.263 249.034 109.988C248.973 109.988 248.942 109.957 248.912 109.957C248.759 109.835 248.697 109.682 248.697 109.529Z" fill="white"/>
<path d="M287.791 68.2986C287.914 68.4821 287.852 68.7268 287.638 68.8492C287.608 68.8797 283.203 71.4184 277.513 74.11C269.865 77.6885 263.625 79.7684 259.006 80.2578H258.975C258.761 80.2578 258.578 80.1048 258.547 79.8907C258.547 79.6766 258.7 79.4931 258.914 79.4625C269.774 78.3003 287.057 68.268 287.241 68.1457C287.455 68.0539 287.699 68.1151 287.791 68.2986Z" fill="white"/>
<path d="M278.431 83.837C278.645 83.8675 278.798 84.0511 278.798 84.2652C278.767 84.4793 278.584 84.6322 278.37 84.6322H278.308C275.708 84.2346 274.148 83.3476 273.689 82.0324C273.078 80.1972 274.852 78.3009 274.913 78.2397C275.066 78.0868 275.311 78.0868 275.464 78.2397C275.616 78.3926 275.616 78.6373 275.464 78.7902C275.464 78.7902 273.934 80.4113 274.393 81.7877C274.76 82.7359 276.167 83.4699 278.431 83.837Z" fill="white"/>
<path d="M163.412 115.738C163.259 115.585 163.259 115.341 163.443 115.188C163.596 115.065 163.81 115.035 163.963 115.157L173.751 124.241C173.904 124.394 173.904 124.639 173.751 124.792C173.69 124.883 173.568 124.914 173.476 124.914C173.384 124.914 173.293 124.883 173.201 124.822L163.412 115.738Z" fill="#406829"/>
<path d="M257.415 226.582C257.415 226.796 257.232 226.98 257.018 226.98C256.804 226.98 256.62 226.796 256.62 226.582C257.018 212.512 244.904 210.891 244.384 210.83C244.17 210.799 244.017 210.616 244.047 210.402C244.078 210.188 244.262 210.035 244.476 210.065C244.598 210.035 257.782 211.748 257.415 226.582Z" fill="#406829"/>
<path d="M246.372 238.725C246.403 238.939 246.219 239.122 246.005 239.153C245.301 239.214 244.567 239.275 243.833 239.275C230.557 239.275 228.14 225.756 228.11 225.603C228.079 225.389 228.232 225.175 228.446 225.145C228.66 225.114 228.875 225.267 228.905 225.481C228.997 226.062 231.475 239.856 245.913 238.388C246.158 238.358 246.342 238.511 246.372 238.725Z" fill="#406829"/>
<path d="M314.038 169.233C313.823 169.263 313.609 169.141 313.579 168.927C313.548 168.713 313.67 168.499 313.885 168.468C320.614 167.52 327.467 167.551 334.196 168.56C344.628 170.12 359.342 174.8 370.048 188.38C370.17 188.563 370.14 188.808 369.987 188.93C369.803 189.053 369.559 189.022 369.436 188.869C358.913 175.503 344.414 170.885 334.135 169.355C327.436 168.315 320.676 168.285 314.038 169.233Z" fill="#406829"/>
<path d="M333.218 281.912C333.432 281.882 333.615 282.035 333.646 282.279C333.677 282.493 333.524 282.677 333.279 282.707C333.248 282.707 331.841 282.83 329.455 282.83C323.949 282.83 318.443 282.187 313.059 280.964C302.781 278.578 288.495 272.706 278.951 258.3C278.829 258.116 278.89 257.872 279.073 257.749C279.257 257.627 279.502 257.688 279.624 257.872C289.046 272.063 303.087 277.844 313.242 280.199C319.758 281.698 326.488 282.279 333.218 281.912Z" fill="#406829"/>
<path d="M341.844 2.56965C339.03 2.56965 294.46 2.66141 263.686 2.66141C247.688 2.66141 235.421 2.63083 234.687 2.56965C234.473 2.53907 234.32 2.35555 234.32 2.14145C234.32 1.92734 234.534 1.77441 234.748 1.77441C236.828 1.95793 340.804 1.77441 341.844 1.77441C342.058 1.77441 342.242 1.95793 342.242 2.17203C342.242 2.38614 342.058 2.56965 341.844 2.56965Z" fill="#406829"/>
<path d="M369.712 133.631C368.886 133.631 287.424 132.835 283.539 132.835C283.325 132.835 283.142 132.652 283.142 132.438C283.142 132.224 283.325 132.04 283.539 132.04C287.424 132.04 368.886 132.835 369.712 132.835C369.926 132.835 370.109 133.019 370.109 133.233C370.109 133.447 369.926 133.631 369.712 133.631Z" fill="#406829"/>
<path d="M326.212 230.528C323.374 230.528 321.073 228.227 321.073 225.389C321.073 222.552 323.374 220.251 326.212 220.251C329.051 220.251 331.352 222.552 331.352 225.389C331.352 228.227 329.051 230.528 326.212 230.528Z" fill="#406829"/>
<path d="M133.618 228.937C131.658 228.937 130.069 227.348 130.069 225.389C130.069 223.429 131.658 221.841 133.618 221.841C135.577 221.841 137.166 223.429 137.166 225.389C137.166 227.348 135.577 228.937 133.618 228.937Z" fill="#406829"/>
<path d="M163.626 127.636C163.565 127.666 163.473 127.697 163.412 127.697C163.29 127.697 163.167 127.636 163.075 127.513C163.045 127.483 160.812 124.088 157.906 123.354C157.692 123.292 157.569 123.078 157.63 122.864C157.692 122.65 157.906 122.528 158.12 122.589C161.332 123.415 163.657 126.932 163.748 127.085C163.871 127.269 163.81 127.513 163.626 127.636Z" fill="#406829"/>
</g>
<defs>
<clipPath id="clip0_189_8950">
<rect width="440.497" height="313.202" fill="white" transform="matrix(-1 0 0 1 440.497 0)"/>
</clipPath>
</defs>
</svg>
